HIERARCHY
ROOT Hips
{
	OFFSET 0.000000 0.000000 0.000000 
	CHANNELS 6 Xposition Yposition Zposition Zrotation Yrotation Xrotation
	JOINT LeftUpLeg
	{
		OFFSET 1.363060 -1.794630 0.839290 
		CHANNELS 3 Zrotation Yrotation Xrotation
		JOINT LeftLeg
		{
			OFFSET 2.448110 -6.726130 0.000000 
			CHANNELS 3 Zrotation Yrotation Xrotation
			JOINT LeftFoot
			{
				OFFSET 2.562200 -7.039590 0.000000 
				CHANNELS 3 Zrotation Yrotation Xrotation
				JOINT LeftToeBase
				{
					OFFSET 0.157640 -0.433110 2.322550 
					CHANNELS 3 Zrotation Yrotation Xrotation
					End Site
					{
						OFFSET 0.000000 0.000000 0.000000 
					}
				}
			}
		}
	}
	JOINT RightUpLeg
	{
		OFFSET -1.305520 -1.794630 0.839290 
		CHANNELS 3 Zrotation Yrotation Xrotation
		JOINT RightLeg
		{
			OFFSET -2.542530 -6.985550 0.000000 
			CHANNELS 3 Zrotation Yrotation Xrotation
			JOINT RightFoot
			{
				OFFSET -2.568260 -7.056230 0.000000 
				CHANNELS 3 Zrotation Yrotation Xrotation
				JOINT RightToeBase
				{
					OFFSET -0.164730 -0.452590 2.363150 
					CHANNELS 3 Zrotation Yrotation Xrotation
					End Site
					{
						OFFSET 0.000000 0.000000 0.000000 
					}
				}
			}
		}
	}
	JOINT Spine
	{
		OFFSET 0.028270 2.035590 -0.193380 
		CHANNELS 3 Zrotation Yrotation Xrotation
		JOINT Spine1
		{
			OFFSET 0.056720 2.048850 -0.042750 
			CHANNELS 3 Zrotation Yrotation Xrotation
			JOINT Neck1
			{
				OFFSET -0.054170 1.746240 0.172020 
				CHANNELS 3 Zrotation Yrotation Xrotation
				JOINT Head
				{
					OFFSET 0.104070 1.761360 -0.123970 
					CHANNELS 3 Zrotation Yrotation Xrotation
					End Site
					{
						OFFSET 0.000000 0.000000 0.000000 
					}
				}
			}
			JOINT LeftArm
			{
				OFFSET 3.362410 1.200890 -0.311210 
				CHANNELS 3 Zrotation Yrotation Xrotation
				JOINT LeftForeArm
				{
					OFFSET 4.983000 -0.000000 -0.000000 
					CHANNELS 3 Zrotation Yrotation Xrotation
					JOINT LeftHand
					{
						OFFSET 3.483560 -0.000000 -0.000000 
						CHANNELS 3 Zrotation Yrotation Xrotation
						JOINT LeftHandIndex1
						{
							OFFSET 0.715260 -0.000000 -0.000000 
							CHANNELS 3 Zrotation Yrotation Xrotation
							End Site
							{
								OFFSET 0.000000 0.000000 0.000000 
							}
						}
					}
				}
			}
			JOINT RightArm
			{
				OFFSET -3.136600 1.374050 -0.404650 
				CHANNELS 3 Zrotation Yrotation Xrotation
				JOINT RightForeArm
				{
					OFFSET -5.241900 -0.000000 -0.000000 
					CHANNELS 3 Zrotation Yrotation Xrotation
					JOINT RightHand
					{
						OFFSET -3.444170 -0.000000 -0.000000 
						CHANNELS 3 Zrotation Yrotation Xrotation
						JOINT RightHandIndex1
						{
							OFFSET -0.622530 -0.000000 -0.000000 
							CHANNELS 3 Zrotation Yrotation Xrotation
							End Site
							{
								OFFSET 0.000000 0.000000 0.000000 
							}
						}
					}
				}
			}
		}
	}
}
MOTION
Frames: 9
Frame Time: 0.041667
-0.246814 17.507022 -2.704802 1.337176 -1.630828 6.931515 -22.434390 -6.970042 -19.721288 1.669930 9.673453 29.705617 -0.649850 5.806557 -10.044766 0.577200 -4.864900 -13.523700 21.800232 11.880852 -21.727635 -3.132377 -10.445291 32.640630 0.812414 -8.125929 -11.578745 -0.369500 3.904600 -10.808300 0.560454 2.940210 -0.608762 -0.104354 1.347831 -1.445359 4.301362 -6.445774 6.213280 2.380600 -3.197400 1.916200 -51.626584 -57.014286 26.311311 36.514763 -40.308523 -13.746146 -1.207013 -1.043717 -63.149447 -7.125000 0.000000 0.000000 43.344365 56.496431 7.395604 -24.814950 32.659766 -6.261293 -0.052811 -0.892118 -61.198930 7.125000 0.000000 0.000000 
-0.247897 17.509189 -2.706871 1.305351 -1.636540 6.893954 -22.400212 -6.930380 -19.692156 1.666204 9.662991 29.673929 -0.700859 5.971216 -9.842355 0.638000 -5.110200 -14.223200 21.853990 11.855620 -21.686586 -3.128798 -10.435644 32.618679 0.811432 -8.105327 -11.535055 -0.394600 4.033600 -11.171200 0.567586 2.935657 -0.607702 -0.113211 1.346407 -1.475256 4.264563 -6.417048 6.222787 2.362800 -3.184100 1.919000 -51.623078 -56.940110 26.299418 36.542240 -40.340129 -13.772249 -1.209671 -1.046216 -63.130344 -7.125000 0.000000 0.000000 43.373790 56.478759 7.468753 -24.832978 32.671130 -6.266411 -0.056932 -0.889709 -61.120539 7.125000 0.000000 0.000000 
-0.250656 17.508401 -2.709334 1.338837 -1.643448 6.895503 -22.428114 -6.939825 -19.722823 1.674898 9.678751 29.720692 -0.692105 5.946526 -9.887186 0.639200 -5.115000 -14.236700 21.823051 11.850126 -21.723952 -3.134090 -10.445715 32.646128 0.803863 -8.067331 -11.536773 -0.388900 4.004600 -11.089500 0.566422 2.924166 -0.605064 -0.098512 1.340039 -1.480087 4.222814 -6.399424 6.215922 2.335800 -3.175400 1.915200 -51.485132 -56.882146 26.236243 36.550912 -40.363455 -13.783779 -1.209243 -1.044885 -63.197266 -7.125000 0.000000 0.000000 43.367785 56.472310 7.514406 -24.862232 32.699283 -6.277966 -0.060041 -0.886604 -61.088288 7.125000 0.000000 0.000000 
-0.254203 17.507909 -2.713374 1.276917 -1.622209 6.963463 -22.331740 -6.981887 -19.827643 1.678880 9.695745 29.749335 -0.678676 5.893717 -9.897736 0.621600 -5.045400 -14.038200 21.894287 11.905452 -21.828817 -3.141676 -10.464178 32.693669 0.811288 -8.104735 -11.521955 -0.384600 3.982600 -11.027800 0.571833 2.923222 -0.619449 -0.114196 1.341007 -1.504219 4.201094 -6.421325 6.228125 2.316700 -3.186600 1.913000 -51.436399 -56.867516 26.267986 36.548771 -40.363916 -13.782970 -1.208994 -1.044666 -63.218857 -7.125000 0.000000 0.000000 43.311557 56.443005 7.551391 -24.865518 32.706857 -6.280303 -0.058692 -0.886962 -61.075224 7.125000 0.000000 0.000000 
-0.256371 17.509189 -2.716133 1.179059 -1.619244 7.010915 -22.216461 -6.996168 -19.917370 1.684887 9.713421 29.781179 -0.697907 5.961226 -9.832472 0.629800 -5.078100 -14.131400 22.017576 11.924380 -21.868368 -3.154518 -10.484683 32.762911 0.792422 -8.007610 -11.528798 -0.344300 3.770600 -10.432100 0.575396 2.939864 -0.614148 -0.162834 1.350718 -1.477583 4.188765 -6.442678 6.254018 2.309100 -3.197200 1.943000 -51.352462 -56.903485 26.257538 36.549940 -40.362172 -13.778982 -1.205802 -1.041407 -63.200272 -7.125000 0.000000 0.000000 43.138247 56.436621 7.489616 -24.877972 32.735528 -6.292028 -0.053377 -0.889921 -61.150156 7.125000 0.000000 0.000000 
-0.258243 17.510766 -2.717020 1.178839 -1.625775 7.038185 -22.225336 -6.991272 -19.977600 1.691402 9.726454 29.811813 -0.708427 5.977634 -9.714830 0.619300 -5.036100 -14.011700 22.032658 11.907882 -21.870115 -3.169173 -10.505145 32.834604 0.759826 -7.837987 -11.538239 -0.286000 3.439000 -9.503600 0.574572 2.909113 -0.593472 -0.170423 1.335438 -1.410309 4.186445 -6.420211 6.266461 2.320900 -3.186100 1.994000 -51.159381 -56.924765 26.004937 36.556547 -40.378963 -13.779124 -1.200676 -1.029081 -63.110097 -7.125000 0.000000 0.000000 42.961153 56.521772 7.440937 -24.899044 32.766916 -6.302095 -0.049404 -0.886469 -61.182350 7.125000 0.000000 0.000000 
-0.259918 17.511850 -2.719187 1.186878 -1.638613 7.036700 -22.226277 -6.986041 -20.002567 1.696013 9.735368 29.834206 -0.706263 5.954246 -9.656424 0.572500 -4.845700 -13.468900 22.037999 11.917541 -21.870217 -3.179780 -10.519616 32.885466 0.747366 -7.766910 -11.522421 -0.265800 3.316700 -9.161800 0.602536 2.837574 -0.578014 -0.070331 1.299838 -1.380153 4.139702 -6.336559 6.258729 2.323300 -3.147000 2.006000 -50.995621 -56.875495 25.627931 36.506755 -40.369975 -13.749249 -1.198298 -1.020084 -62.941006 -7.125000 0.000000 0.000000 42.845475 56.617515 7.633372 -24.936822 32.808949 -6.318903 -0.049478 -0.886497 -61.201254 7.125000 0.000000 0.000000 
-0.262677 17.510470 -2.720468 1.188890 -1.638118 7.019195 -22.216414 -6.995567 -19.985211 1.699012 9.739087 29.846528 -0.729000 6.051118 -9.652681 0.592000 -4.925800 -13.697100 22.045235 11.919568 -21.881039 -3.187818 -10.531634 32.925294 0.736328 -7.707735 -11.519284 -0.273500 3.363800 -9.293200 0.616489 2.797754 -0.572037 -0.016018 1.280770 -1.387285 4.163272 -6.286500 6.205181 2.355800 -3.122700 1.956900 -50.909643 -56.801927 25.461395 36.526154 -40.412751 -13.774820 -1.203052 -1.012827 -62.841437 -7.125000 0.000000 0.000000 42.846700 56.658368 7.770369 -24.951904 32.825702 -6.324724 -0.050343 -0.885588 -61.217573 7.125000 0.000000 0.000000 
-0.265238 17.509485 -2.721256 1.152275 -1.649500 7.011136 -22.171409 -7.006701 -19.979575 1.701414 9.743460 29.857253 -0.758965 6.187638 -9.683152 0.645900 -5.141200 -14.311800 22.097364 11.916548 -21.888242 -3.191506 -10.537055 32.944857 0.734011 -7.692554 -11.510123 -0.271200 3.349700 -9.253900 0.613648 2.818239 -0.568866 -0.039875 1.291742 -1.393228 4.196346 -6.306223 6.205932 2.378300 -3.132400 1.958600 -50.875426 -56.815886 25.471744 36.543660 -40.427192 -13.789234 -1.205364 -1.011904 -62.798645 -7.125000 0.000000 0.000000 42.735830 56.628148 7.692301 -24.952448 32.839328 -6.328083 -0.050248 -0.883676 -61.239437 7.125000 0.000000 0.000000 
